# xmcd
# 
# Track frame offsets:
#     150
#     10270
#     22910
#     37472
#     47635
#     58117
#     72995
#     90095
#     106157
#     116762
#     128382
#     142547
#     155505
#     170570
#     189602
#     208992
#     226972
#     239490
#     253112
#     264507
# 
# Disc length: 4028
# 
# Revision: 4
# Processed by: cddbd v1.5.2PL0 Copyright (c) Steve Scherf et al.
# Submitted via: fre:ac v1.0.31
# 
DISCID=110fba14
DTITLE=John Mayall - The Best Of John Mayall and The Bluesbreakers: As It All Began 1964-69
DYEAR=1998
DGENRE=Blues
TTITLE0=Crawling Up A Hill
TTITLE1=Mr. James
TTITLE2=Heartache
TTITLE3=Crocodile Walk
TTITLE4=Blues City Shakedown
TTITLE5=Lonely Years
TTITLE6=Bernard Jenkins
TTITLE7=All Your Love
TTITLE8=Parchman Farm
TTITLE9=Looking Back
TTITLE10=A Hard Road
TTITLE11=Eagle Eye
TTITLE12=Double Trouble
TTITLE13=Broken Wings
TTITLE14=The Death Of J.B. Lenior
TTITLE15=Me And My Woman
TTITLE16=Suspicious
TTITLE17=Picture On The Wall
TTITLE18=Miss James
TTITLE19=Start Walkin'
EXTD=Corrected spelling of John Mayall and title of the album.\n\n
EXTT0=
EXTT1=
EXTT2=
EXTT3=
EXTT4=
EXTT5=
EXTT6=
EXTT7=
EXTT8=
EXTT9=
EXTT10=
EXTT11=
EXTT12=
EXTT13=
EXTT14=
EXTT15=
EXTT16=
EXTT17=
EXTT18=
EXTT19=
PLAYORDER=
